<?xml version="1.0" encoding="UTF-8" ?>
<svg version="1.1" width="420" height="420" xmlns="http://www.w3.org/2000/svg" shape-rendering="crispEdges">
<rect x="0" y="0" width="420" height="2" fill="#86C06C" />
<rect x="0" y="2" width="106" height="128" fill="#86C06C" />
<rect x="106" y="2" width="8" height="8" fill="#E0F8CF" />
<rect x="114" y="2" width="8" height="8" fill="#86C06C" />
<rect x="122" y="2" width="8" height="8" fill="#E0F8CF" />
<rect x="130" y="2" width="232" height="32" fill="#86C06C" />
<rect x="362" y="2" width="8" height="8" fill="#E0F8CF" />
<rect x="370" y="2" width="8" height="8" fill="#86C06C" />
<rect x="378" y="2" width="8" height="8" fill="#E0F8CF" />
<rect x="386" y="2" width="34" height="32" fill="#86C06C" />
<rect x="106" y="10" width="8" height="216" fill="#86C06C" />
<rect x="114" y="10" width="8" height="8" fill="#306850" />
<rect x="122" y="10" width="8" height="104" fill="#86C06C" />
<rect x="362" y="10" width="8" height="56" fill="#86C06C" />
<rect x="370" y="10" width="8" height="8" fill="#306850" />
<rect x="378" y="10" width="8" height="56" fill="#86C06C" />
<rect x="114" y="18" width="8" height="96" fill="#86C06C" />
<rect x="370" y="18" width="8" height="56" fill="#86C06C" />
<rect x="130" y="34" width="96" height="32" fill="#86C06C" />
<rect x="226" y="34" width="8" height="8" fill="#E0F8CF" />
<rect x="234" y="34" width="8" height="8" fill="#86C06C" />
<rect x="242" y="34" width="8" height="8" fill="#E0F8CF" />
<rect x="250" y="34" width="112" height="32" fill="#86C06C" />
<rect x="386" y="34" width="32" height="88" fill="#86C06C" />
<rect x="418" y="34" width="2" height="8" fill="#E0F8CF" />
<rect x="226" y="42" width="8" height="24" fill="#86C06C" />
<rect x="234" y="42" width="8" height="8" fill="#306850" />
<rect x="242" y="42" width="8" height="24" fill="#86C06C" />
<rect x="418" y="42" width="2" height="128" fill="#86C06C" />
<rect x="234" y="50" width="8" height="16" fill="#86C06C" />
<rect x="130" y="66" width="32" height="16" fill="#86C06C" />
<rect x="162" y="66" width="96" height="16" fill="#071821" />
<rect x="258" y="66" width="104" height="16" fill="#86C06C" />
<rect x="362" y="66" width="8" height="8" fill="#E0F8CF" />
<rect x="378" y="66" width="8" height="8" fill="#E0F8CF" />
<rect x="362" y="74" width="8" height="32" fill="#86C06C" />
<rect x="370" y="74" width="8" height="8" fill="#306850" />
<rect x="378" y="74" width="8" height="184" fill="#86C06C" />
<rect x="130" y="82" width="16" height="16" fill="#86C06C" />
<rect x="146" y="82" width="16" height="16" fill="#071821" />
<rect x="162" y="82" width="96" height="32" fill="#86C06C" />
<rect x="258" y="82" width="16" height="16" fill="#071821" />
<rect x="274" y="82" width="88" height="16" fill="#86C06C" />
<rect x="370" y="82" width="8" height="32" fill="#86C06C" />
<rect x="130" y="98" width="16" height="16" fill="#071821" />
<rect x="146" y="98" width="16" height="48" fill="#86C06C" />
<rect x="258" y="98" width="16" height="48" fill="#86C06C" />
<rect x="274" y="98" width="16" height="16" fill="#071821" />
<rect x="290" y="98" width="72" height="16" fill="#86C06C" />
<rect x="362" y="106" width="8" height="8" fill="#E0F8CF" />
<rect x="114" y="114" width="16" height="64" fill="#071821" />
<rect x="130" y="114" width="16" height="16" fill="#86C06C" />
<rect x="162" y="114" width="64" height="16" fill="#86C06C" />
<rect x="226" y="114" width="16" height="16" fill="#071821" />
<rect x="242" y="114" width="16" height="16" fill="#86C06C" />
<rect x="274" y="114" width="16" height="16" fill="#86C06C" />
<rect x="290" y="114" width="16" height="64" fill="#071821" />
<rect x="306" y="114" width="64" height="16" fill="#86C06C" />
<rect x="370" y="114" width="8" height="16" fill="#E0F8CF" />
<rect x="386" y="122" width="8" height="8" fill="#86C06C" />
<rect x="394" y="122" width="8" height="8" fill="#E0F8CF" />
<rect x="402" y="122" width="16" height="298" fill="#86C06C" />
<rect x="0" y="130" width="2" height="8" fill="#E0F8CF" />
<rect x="2" y="130" width="104" height="64" fill="#86C06C" />
<rect x="130" y="130" width="16" height="16" fill="#071821" />
<rect x="162" y="130" width="32" height="16" fill="#86C06C" />
<rect x="194" y="130" width="32" height="16" fill="#071821" />
<rect x="226" y="130" width="16" height="48" fill="#E0F8CF" />
<rect x="242" y="130" width="16" height="16" fill="#071821" />
<rect x="274" y="130" width="16" height="16" fill="#071821" />
<rect x="306" y="130" width="48" height="96" fill="#86C06C" />
<rect x="354" y="130" width="8" height="8" fill="#306850" />
<rect x="362" y="130" width="8" height="128" fill="#86C06C" />
<rect x="370" y="130" width="8" height="8" fill="#306850" />
<rect x="386" y="130" width="8" height="8" fill="#306850" />
<rect x="394" y="130" width="8" height="290" fill="#86C06C" />
<rect x="0" y="138" width="2" height="88" fill="#86C06C" />
<rect x="354" y="138" width="8" height="282" fill="#86C06C" />
<rect x="370" y="138" width="8" height="128" fill="#86C06C" />
<rect x="386" y="138" width="8" height="282" fill="#86C06C" />
<rect x="130" y="146" width="16" height="32" fill="#E0F8CF" />
<rect x="146" y="146" width="48" height="16" fill="#071821" />
<rect x="194" y="146" width="32" height="80" fill="#E0F8CF" />
<rect x="242" y="146" width="16" height="80" fill="#E0F8CF" />
<rect x="258" y="146" width="16" height="32" fill="#071821" />
<rect x="274" y="146" width="16" height="32" fill="#E0F8CF" />
<rect x="146" y="162" width="16" height="16" fill="#071821" />
<rect x="162" y="162" width="32" height="16" fill="#E0F8CF" />
<rect x="418" y="170" width="2" height="8" fill="#E0F8CF" />
<rect x="114" y="178" width="16" height="32" fill="#86C06C" />
<rect x="130" y="178" width="16" height="48" fill="#071821" />
<rect x="146" y="178" width="32" height="32" fill="#E0F8CF" />
<rect x="178" y="178" width="16" height="32" fill="#071821" />
<rect x="226" y="178" width="16" height="32" fill="#071821" />
<rect x="258" y="178" width="16" height="32" fill="#E0F8CF" />
<rect x="274" y="178" width="16" height="48" fill="#071821" />
<rect x="290" y="178" width="16" height="32" fill="#86C06C" />
<rect x="418" y="178" width="2" height="48" fill="#86C06C" />
<rect x="2" y="194" width="40" height="120" fill="#86C06C" />
<rect x="42" y="194" width="8" height="8" fill="#E0F8CF" />
<rect x="50" y="194" width="8" height="8" fill="#86C06C" />
<rect x="58" y="194" width="8" height="8" fill="#E0F8CF" />
<rect x="66" y="194" width="40" height="32" fill="#86C06C" />
<rect x="42" y="202" width="8" height="112" fill="#86C06C" />
<rect x="50" y="202" width="8" height="8" fill="#306850" />
<rect x="58" y="202" width="8" height="218" fill="#86C06C" />
<rect x="50" y="210" width="8" height="96" fill="#86C06C" />
<rect x="114" y="210" width="16" height="16" fill="#071821" />
<rect x="146" y="210" width="16" height="16" fill="#071821" />
<rect x="162" y="210" width="32" height="16" fill="#E0F8CF" />
<rect x="226" y="210" width="16" height="16" fill="#E0F8CF" />
<rect x="258" y="210" width="16" height="16" fill="#071821" />
<rect x="290" y="210" width="16" height="16" fill="#071821" />
<rect x="0" y="226" width="2" height="16" fill="#E0F8CF" />
<rect x="66" y="226" width="32" height="194" fill="#86C06C" />
<rect x="98" y="226" width="16" height="32" fill="#071821" />
<rect x="114" y="226" width="48" height="16" fill="#E0F8CF" />
<rect x="162" y="226" width="96" height="32" fill="#071821" />
<rect x="258" y="226" width="48" height="16" fill="#E0F8CF" />
<rect x="306" y="226" width="16" height="32" fill="#071821" />
<rect x="322" y="226" width="32" height="194" fill="#86C06C" />
<rect x="418" y="226" width="2" height="8" fill="#E0F8CF" />
<rect x="418" y="234" width="2" height="56" fill="#86C06C" />
<rect x="0" y="242" width="2" height="8" fill="#306850" />
<rect x="114" y="242" width="32" height="16" fill="#E0F8CF" />
<rect x="146" y="242" width="16" height="32" fill="#071821" />
<rect x="258" y="242" width="16" height="32" fill="#071821" />
<rect x="274" y="242" width="32" height="16" fill="#E0F8CF" />
<rect x="0" y="250" width="2" height="136" fill="#86C06C" />
<rect x="98" y="258" width="16" height="128" fill="#86C06C" />
<rect x="114" y="258" width="32" height="16" fill="#071821" />
<rect x="162" y="258" width="32" height="16" fill="#86C06C" />
<rect x="194" y="258" width="32" height="16" fill="#071821" />
<rect x="226" y="258" width="32" height="16" fill="#86C06C" />
<rect x="274" y="258" width="32" height="16" fill="#071821" />
<rect x="306" y="258" width="16" height="104" fill="#86C06C" />
<rect x="362" y="258" width="8" height="8" fill="#E0F8CF" />
<rect x="378" y="258" width="8" height="8" fill="#E0F8CF" />
<rect x="362" y="266" width="8" height="56" fill="#86C06C" />
<rect x="370" y="266" width="8" height="8" fill="#306850" />
<rect x="378" y="266" width="8" height="56" fill="#86C06C" />
<rect x="114" y="274" width="16" height="112" fill="#86C06C" />
<rect x="130" y="274" width="16" height="32" fill="#071821" />
<rect x="146" y="274" width="16" height="32" fill="#86C06C" />
<rect x="162" y="274" width="32" height="16" fill="#071821" />
<rect x="194" y="274" width="32" height="16" fill="#86C06C" />
<rect x="226" y="274" width="32" height="16" fill="#071821" />
<rect x="258" y="274" width="16" height="32" fill="#86C06C" />
<rect x="274" y="274" width="16" height="32" fill="#071821" />
<rect x="290" y="274" width="16" height="80" fill="#86C06C" />
<rect x="370" y="274" width="8" height="56" fill="#86C06C" />
<rect x="162" y="290" width="32" height="16" fill="#86C06C" />
<rect x="194" y="290" width="32" height="16" fill="#071821" />
<rect x="226" y="290" width="32" height="16" fill="#86C06C" />
<rect x="418" y="290" width="2" height="8" fill="#E0F8CF" />
<rect x="418" y="298" width="2" height="56" fill="#86C06C" />
<rect x="50" y="306" width="8" height="8" fill="#E0F8CF" />
<rect x="130" y="306" width="16" height="114" fill="#86C06C" />
<rect x="146" y="306" width="48" height="16" fill="#071821" />
<rect x="194" y="306" width="32" height="114" fill="#86C06C" />
<rect x="226" y="306" width="48" height="16" fill="#071821" />
<rect x="274" y="306" width="16" height="56" fill="#86C06C" />
<rect x="2" y="314" width="16" height="106" fill="#86C06C" />
<rect x="18" y="314" width="8" height="8" fill="#E0F8CF" />
<rect x="26" y="314" width="16" height="8" fill="#86C06C" />
<rect x="42" y="314" width="8" height="8" fill="#E0F8CF" />
<rect x="50" y="314" width="8" height="40" fill="#86C06C" />
<rect x="18" y="322" width="8" height="98" fill="#86C06C" />
<rect x="26" y="322" width="8" height="8" fill="#306850" />
<rect x="34" y="322" width="8" height="32" fill="#86C06C" />
<rect x="42" y="322" width="8" height="8" fill="#306850" />
<rect x="146" y="322" width="48" height="32" fill="#86C06C" />
<rect x="226" y="322" width="48" height="96" fill="#86C06C" />
<rect x="362" y="322" width="8" height="8" fill="#E0F8CF" />
<rect x="378" y="322" width="8" height="8" fill="#E0F8CF" />
<rect x="26" y="330" width="8" height="90" fill="#86C06C" />
<rect x="42" y="330" width="8" height="32" fill="#86C06C" />
<rect x="362" y="330" width="8" height="56" fill="#86C06C" />
<rect x="370" y="330" width="8" height="8" fill="#306850" />
<rect x="378" y="330" width="8" height="56" fill="#86C06C" />
<rect x="370" y="338" width="8" height="56" fill="#86C06C" />
<rect x="34" y="354" width="8" height="8" fill="#E0F8CF" />
<rect x="50" y="354" width="8" height="8" fill="#E0F8CF" />
<rect x="146" y="354" width="16" height="66" fill="#86C06C" />
<rect x="162" y="354" width="8" height="8" fill="#E0F8CF" />
<rect x="170" y="354" width="8" height="8" fill="#86C06C" />
<rect x="178" y="354" width="8" height="8" fill="#E0F8CF" />
<rect x="186" y="354" width="8" height="66" fill="#86C06C" />
<rect x="290" y="354" width="8" height="66" fill="#86C06C" />
<rect x="298" y="354" width="8" height="16" fill="#E0F8CF" />
<rect x="418" y="354" width="2" height="8" fill="#E0F8CF" />
<rect x="34" y="362" width="8" height="56" fill="#86C06C" />
<rect x="42" y="362" width="8" height="8" fill="#306850" />
<rect x="50" y="362" width="8" height="56" fill="#86C06C" />
<rect x="162" y="362" width="8" height="56" fill="#86C06C" />
<rect x="170" y="362" width="8" height="8" fill="#306850" />
<rect x="178" y="362" width="8" height="56" fill="#86C06C" />
<rect x="274" y="362" width="8" height="58" fill="#86C06C" />
<rect x="282" y="362" width="8" height="8" fill="#E0F8CF" />
<rect x="306" y="362" width="8" height="58" fill="#86C06C" />
<rect x="314" y="362" width="8" height="8" fill="#E0F8CF" />
<rect x="418" y="362" width="2" height="56" fill="#86C06C" />
<rect x="42" y="370" width="8" height="50" fill="#86C06C" />
<rect x="170" y="370" width="8" height="50" fill="#86C06C" />
<rect x="282" y="370" width="8" height="8" fill="#306850" />
<rect x="298" y="370" width="8" height="8" fill="#306850" />
<rect x="314" y="370" width="8" height="8" fill="#306850" />
<rect x="282" y="378" width="8" height="42" fill="#86C06C" />
<rect x="298" y="378" width="8" height="42" fill="#86C06C" />
<rect x="314" y="378" width="8" height="42" fill="#86C06C" />
<rect x="0" y="386" width="2" height="8" fill="#E0F8CF" />
<rect x="98" y="386" width="8" height="34" fill="#86C06C" />
<rect x="106" y="386" width="8" height="8" fill="#E0F8CF" />
<rect x="114" y="386" width="8" height="8" fill="#86C06C" />
<rect x="122" y="386" width="8" height="8" fill="#E0F8CF" />
<rect x="362" y="386" width="8" height="8" fill="#E0F8CF" />
<rect x="378" y="386" width="8" height="8" fill="#E0F8CF" />
<rect x="0" y="394" width="2" height="26" fill="#86C06C" />
<rect x="106" y="394" width="8" height="26" fill="#86C06C" />
<rect x="114" y="394" width="8" height="8" fill="#306850" />
<rect x="122" y="394" width="8" height="26" fill="#86C06C" />
<rect x="362" y="394" width="8" height="26" fill="#86C06C" />
<rect x="370" y="394" width="8" height="8" fill="#306850" />
<rect x="378" y="394" width="8" height="26" fill="#86C06C" />
<rect x="114" y="402" width="8" height="18" fill="#86C06C" />
<rect x="370" y="402" width="8" height="18" fill="#86C06C" />
<rect x="34" y="418" width="8" height="2" fill="#E0F8CF" />
<rect x="50" y="418" width="8" height="2" fill="#E0F8CF" />
<rect x="162" y="418" width="8" height="2" fill="#E0F8CF" />
<rect x="178" y="418" width="8" height="2" fill="#E0F8CF" />
<rect x="226" y="418" width="8" height="2" fill="#86C06C" />
<rect x="234" y="418" width="8" height="2" fill="#E0F8CF" />
<rect x="242" y="418" width="32" height="2" fill="#86C06C" />
<rect x="418" y="418" width="2" height="2" fill="#E0F8CF" />
</svg>